<svg xmlns="http://www.w3.org/2000/svg" xmlns:cc="http://web.resource.org/cc/" xmlns:svg="http://www.w3.org/2000/svg" id="svg2160" width="48" height="48"><defs id="defs2162"><filter id="filter3371" width="1.596" height="1.676" x="-.298" y="-.338"><feGaussianBlur id="feGaussianBlur3373" stdDeviation=".604"/></filter></defs><metadata id="metadata2165"/><g id="layer1"><path style="opacity:1;fill:#5a2a00;fill-opacity:.47058824;stroke:none;stroke-width:.42500001;stroke-miterlimit:4;stroke-dasharray:none;stroke-opacity:1;filter:url(#filter3371)" id="path2198" d="M 10.428571 28.142857 A 2.4285715 2.1428571 0 1 1 5.5714285,28.142857 A 2.4285715 2.1428571 0 1 1 10.428571 28.142857 z" transform="matrix(1.5067874,0,0,2.0108695,-7.6806722,-30.42391)"/><path style="opacity:1;fill:#5a2a00;fill-opacity:.47058824;stroke:none;stroke-width:.42500001;stroke-miterlimit:4;stroke-dasharray:none;stroke-opacity:1;filter:url(#filter3371)" id="path3375" d="M 10.428571 28.142857 A 2.4285715 2.1428571 0 1 1 5.5714285,28.142857 A 2.4285715 2.1428571 0 1 1 10.428571 28.142857 z" transform="matrix(1.5067874,0,0,2.0108695,4.1583711,-28.987575)"/><path style="opacity:1;fill:#5a2a00;fill-opacity:.47058824;stroke:none;stroke-width:.42500001;stroke-miterlimit:4;stroke-dasharray:none;stroke-opacity:1;filter:url(#filter3371)" id="path3377" d="M 10.428571 28.142857 A 2.4285715 2.1428571 0 1 1 5.5714285,28.142857 A 2.4285715 2.1428571 0 1 1 10.428571 28.142857 z" transform="matrix(1.5067874,0,0,2.0108695,13.199095,-19.220494)"/><path style="opacity:1;fill:#5a2a00;fill-opacity:.47058824;stroke:none;stroke-width:.42500001;stroke-miterlimit:4;stroke-dasharray:none;stroke-opacity:1;filter:url(#filter3371)" id="path3379" d="M 10.428571 28.142857 A 2.4285715 2.1428571 0 1 1 5.5714285,28.142857 A 2.4285715 2.1428571 0 1 1 10.428571 28.142857 z" transform="matrix(1.5067874,0,0,2.0108695,18.795734,-27.838507)"/><path style="opacity:1;fill:#5a2a00;fill-opacity:.47058824;stroke:none;stroke-width:.42500001;stroke-miterlimit:4;stroke-dasharray:none;stroke-opacity:1;filter:url(#filter3371)" id="path3381" d="M 10.428571 28.142857 A 2.4285715 2.1428571 0 1 1 5.5714285,28.142857 A 2.4285715 2.1428571 0 1 1 10.428571 28.142857 z" transform="matrix(1.5067874,0,0,2.0108695,28.697479,-28.987575)"/><path style="opacity:1;fill:#5a2a00;fill-opacity:.47058824;stroke:none;stroke-width:.42500001;stroke-miterlimit:4;stroke-dasharray:none;stroke-opacity:1;filter:url(#filter3371)" id="path3383" d="M 10.428571 28.142857 A 2.4285715 2.1428571 0 1 1 5.5714285,28.142857 A 2.4285715 2.1428571 0 1 1 10.428571 28.142857 z" transform="matrix(1.5067874,0,0,2.0108695,32.572075,-16.922358)"/><path style="opacity:1;fill:#5a2a00;fill-opacity:.47058824;stroke:none;stroke-width:.42500001;stroke-miterlimit:4;stroke-dasharray:none;stroke-opacity:1;filter:url(#filter3371)" id="path3385" d="M 10.428571 28.142857 A 2.4285715 2.1428571 0 1 1 5.5714285,28.142857 A 2.4285715 2.1428571 0 1 1 10.428571 28.142857 z" transform="matrix(1.5067874,0,0,2.0108695,23.100839,-15.198755)"/><path style="opacity:1;fill:#5a2a00;fill-opacity:.47058824;stroke:none;stroke-width:.42500001;stroke-miterlimit:4;stroke-dasharray:none;stroke-opacity:1;filter:url(#filter3371)" id="path3387" d="M 10.428571 28.142857 A 2.4285715 2.1428571 0 1 1 5.5714285,28.142857 A 2.4285715 2.1428571 0 1 1 10.428571 28.142857 z" transform="matrix(1.5067874,0,0,2.0108695,0.7142857,-14.049687)"/><path style="opacity:1;fill:#5a2a00;fill-opacity:.47058824;stroke:none;stroke-width:.42500001;stroke-miterlimit:4;stroke-dasharray:none;stroke-opacity:1;filter:url(#filter3371)" id="path3389" d="M 10.428571 28.142857 A 2.4285715 2.1428571 0 1 1 5.5714285,28.142857 A 2.4285715 2.1428571 0 1 1 10.428571 28.142857 z" transform="matrix(1.5067874,0,0,2.0108695,-5.7433742,-19.795028)"/><path style="opacity:1;fill:#5a2a00;fill-opacity:.47058824;stroke:none;stroke-width:.42500001;stroke-miterlimit:4;stroke-dasharray:none;stroke-opacity:1;filter:url(#filter3371)" id="path3391" d="M 10.428571 28.142857 A 2.4285715 2.1428571 0 1 1 5.5714285,28.142857 A 2.4285715 2.1428571 0 1 1 10.428571 28.142857 z" transform="matrix(1.5067874,0,0,2.0108695,-0.5772463,-29.562109)"/><path style="opacity:1;fill:#5a2a00;fill-opacity:.47058824;stroke:none;stroke-width:.42500001;stroke-miterlimit:4;stroke-dasharray:none;stroke-opacity:1;filter:url(#filter3371)" id="path3393" d="M 10.428571 28.142857 A 2.4285715 2.1428571 0 1 1 5.5714285,28.142857 A 2.4285715 2.1428571 0 1 1 10.428571 28.142857 z" transform="matrix(1.5067874,0,0,2.0108695,10.18552,-30.136643)"/><path style="opacity:1;fill:#5a2a00;fill-opacity:.47058824;stroke:none;stroke-width:.42500001;stroke-miterlimit:4;stroke-dasharray:none;stroke-opacity:1;filter:url(#filter3371)" id="path3395" d="M 10.428571 28.142857 A 2.4285715 2.1428571 0 1 1 5.5714285,28.142857 A 2.4285715 2.1428571 0 1 1 10.428571 28.142857 z" transform="matrix(1.5067874,0,0,2.0108695,7.6024558,-21.518631)"/><path style="opacity:1;fill:#5a2a00;fill-opacity:.47058824;stroke:none;stroke-width:.42500001;stroke-miterlimit:4;stroke-dasharray:none;stroke-opacity:1;filter:url(#filter3371)" id="path3397" d="M 10.428571 28.142857 A 2.4285715 2.1428571 0 1 1 5.5714285,28.142857 A 2.4285715 2.1428571 0 1 1 10.428571 28.142857 z" transform="matrix(1.5067874,0,0,2.0108695,1.575307,-21.518631)"/><path style="opacity:1;fill:#5a2a00;fill-opacity:.47058824;stroke:none;stroke-width:.42500001;stroke-miterlimit:4;stroke-dasharray:none;stroke-opacity:1;filter:url(#filter3371)" id="path3399" d="M 10.428571 28.142857 A 2.4285715 2.1428571 0 1 1 5.5714285,28.142857 A 2.4285715 2.1428571 0 1 1 10.428571 28.142857 z" transform="matrix(1.5067874,0,0,2.0108695,13.629605,-24.965835)"/><path style="opacity:1;fill:#5a2a00;fill-opacity:.47058824;stroke:none;stroke-width:.42500001;stroke-miterlimit:4;stroke-dasharray:none;stroke-opacity:1;filter:url(#filter3371)" id="path3401" d="M 10.428571 28.142857 A 2.4285715 2.1428571 0 1 1 5.5714285,28.142857 A 2.4285715 2.1428571 0 1 1 10.428571 28.142857 z" transform="matrix(1.5067874,0,0,2.0108695,21.378797,-20.369562)"/><path style="opacity:1;fill:#5a2a00;fill-opacity:.47058824;stroke:none;stroke-width:.42500001;stroke-miterlimit:4;stroke-dasharray:none;stroke-opacity:1;filter:url(#filter3371)" id="path3403" d="M 10.428571 28.142857 A 2.4285715 2.1428571 0 1 1 5.5714285,28.142857 A 2.4285715 2.1428571 0 1 1 10.428571 28.142857 z" transform="matrix(1.5067874,0,0,2.0108695,23.961861,-30.711177)"/><path style="opacity:1;fill:#5a2a00;fill-opacity:.47058824;stroke:none;stroke-width:.42500001;stroke-miterlimit:4;stroke-dasharray:none;stroke-opacity:1;filter:url(#filter3371)" id="path3405" d="M 10.428571 28.142857 A 2.4285715 2.1428571 0 1 1 5.5714285,28.142857 A 2.4285715 2.1428571 0 1 1 10.428571 28.142857 z" transform="matrix(1.5067874,0,0,2.0108695,26.975436,-22.667699)"/><path style="opacity:1;fill:#5a2a00;fill-opacity:.47058824;stroke:none;stroke-width:.42500001;stroke-miterlimit:4;stroke-dasharray:none;stroke-opacity:1;filter:url(#filter3371)" id="path3407" d="M 10.428571 28.142857 A 2.4285715 2.1428571 0 1 1 5.5714285,28.142857 A 2.4285715 2.1428571 0 1 1 10.428571 28.142857 z" transform="matrix(1.5067874,0,0,2.0108695,28.266969,-12.900619)"/><path style="opacity:1;fill:#5a2a00;fill-opacity:.47058824;stroke:none;stroke-width:.42500001;stroke-miterlimit:4;stroke-dasharray:none;stroke-opacity:1;filter:url(#filter3371)" id="path3409" d="M 10.428571 28.142857 A 2.4285715 2.1428571 0 1 1 5.5714285,28.142857 A 2.4285715 2.1428571 0 1 1 10.428571 28.142857 z" transform="matrix(1.5067874,0,0,2.0108695,15.78216,-13.475153)"/><path style="opacity:1;fill:#5a2a00;fill-opacity:.47058824;stroke:none;stroke-width:.42500001;stroke-miterlimit:4;stroke-dasharray:none;stroke-opacity:1;filter:url(#filter3371)" id="path3411" d="M 10.428571 28.142857 A 2.4285715 2.1428571 0 1 1 5.5714285,28.142857 A 2.4285715 2.1428571 0 1 1 10.428571 28.142857 z" transform="matrix(1.5067874,0,0,2.0108695,5.449903,-13.475153)"/><path style="opacity:1;fill:#5a2a00;fill-opacity:.47058824;stroke:none;stroke-width:.42500001;stroke-miterlimit:4;stroke-dasharray:none;stroke-opacity:1;filter:url(#filter3371)" id="path3413" d="M 10.428571 28.142857 A 2.4285715 2.1428571 0 1 1 5.5714285,28.142857 A 2.4285715 2.1428571 0 1 1 10.428571 28.142857 z" transform="matrix(1.5067874,0,0,2.0108695,10.18552,-13.475153)"/><path style="opacity:1;fill:#5a2a00;fill-opacity:.47058824;stroke:none;stroke-width:.42500001;stroke-miterlimit:4;stroke-dasharray:none;stroke-opacity:1;filter:url(#filter3371)" id="path3415" d="M 10.428571 28.142857 A 2.4285715 2.1428571 0 1 1 5.5714285,28.142857 A 2.4285715 2.1428571 0 1 1 10.428571 28.142857 z" transform="matrix(1.5067874,0,0,2.0108695,-7.0349063,-24.391301)"/></g></svg>