<svg xmlns="http://www.w3.org/2000/svg" xmlns:cc="http://web.resource.org/cc/" xmlns:svg="http://www.w3.org/2000/svg" id="svg2160" width="48" height="48"><metadata id="metadata2165"/><g id="layer1"><rect style="opacity:1;fill:#000;fill-opacity:.04117647;stroke:none;stroke-width:.42500001;stroke-miterlimit:4;stroke-dasharray:none;stroke-opacity:1" id="rect2163" width="49" height="49.143" x="0" y="-.143"/><rect style="opacity:1;fill:#d50000;fill-opacity:1;stroke:#182d0f;stroke-width:.42519686;stroke-miterlimit:4;stroke-dasharray:none;stroke-opacity:1" id="rect2168" width="13.857" height="2.571" x="10" y="17.571" rx="4.041" ry="2.571"/><rect style="opacity:1;fill:#d50000;fill-opacity:1;stroke:#182d0f;stroke-width:.38444248;stroke-miterlimit:4;stroke-dasharray:none;stroke-opacity:1" id="rect2170" width="10.326" height="2.326" x="11.837" y="15.481" rx="2.898" ry="2.571"/><rect style="opacity:1;fill:#d50000;fill-opacity:1;stroke:#182d0f;stroke-width:.42519689;stroke-miterlimit:4;stroke-dasharray:none;stroke-opacity:1" id="rect2172" width="13" height="1.286" x="1.502" y="26.117" rx=".4" ry=".8" transform="matrix(0.6427875,-0.7660445,0.7660445,0.6427875,0,0)"/><path style="opacity:1;fill:#d50000;fill-opacity:1;stroke:#182d0f;stroke-width:.42519686;stroke-miterlimit:4;stroke-dasharray:none;stroke-opacity:1" id="path2174" d="M 38.436056,15.017635 A 6,3.5714285 0 1 1 38.317964,9.496118" transform="matrix(1.3748607e-8,1.2272272,-0.9937961,1.6977995e-8,42.458882,-29.829847)"/><path style="opacity:1;fill:#d50000;fill-opacity:1;stroke:#182d0f;stroke-width:.42519686;stroke-miterlimit:4;stroke-dasharray:none;stroke-opacity:1" id="path2176" d="M 31.571428 21.285715 A 1.8571428 1.7142857 0 1 1 27.857142,21.285715 A 1.8571428 1.7142857 0 1 1 31.571428 21.285715 z" transform="matrix(0.7217013,0,0,0.781843,7.0551619,1.9276543)"/><path style="opacity:1;fill:#d50000;fill-opacity:1;stroke:#182d0f;stroke-width:.42519686;stroke-miterlimit:4;stroke-dasharray:none;stroke-opacity:1" id="path2178" d="M 31.571428 21.285715 A 1.8571428 1.7142857 0 1 1 27.857142,21.285715 A 1.8571428 1.7142857 0 1 1 31.571428 21.285715 z" transform="matrix(0.7217013,0,0,0.781843,10.629967,1.9276533)"/></g></svg>